<?xml version="1.0" encoding="utf-8"?>
<!-- Generator: Adobe Illustrator 16.0.0, SVG Export Plug-In . SVG Version: 6.00 Build 0)  -->
<!DOCTYPE svg PUBLIC "-//W3C//DTD SVG 1.1//EN" "http://www.w3.org/Graphics/SVG/1.1/DTD/svg11.dtd">
<svg version="1.1" id="Capa_1" xmlns="http://www.w3.org/2000/svg" xmlns:xlink="http://www.w3.org/1999/xlink" x="0px" y="0px"
	 width="200px" height="22px" viewBox="0 0 200 22" enable-background="new 0 0 200 22" xml:space="preserve">
<g>
	<g>
		<path fill="#E00D1D" d="M100.729,3.158c-3.537-2.374-7.166-2.465-11.09-0.277c-1.553,0.866-3.123,1.513-4.704,1.996
			c-3.984,1.212-5.715,1.188-9.839-0.032c-1.372-0.407-2.752-0.911-4.138-1.587l-0.54-0.265c-1.771-0.875-3.449-1.706-5.154-1.545
			l-0.196,0.005c-2.461-0.153-4.959,0.853-6.861,2.753c-2.753,2.755-3.544,6.625-2.11,10.355c0.981,2.538,2.907,4.449,5.437,5.375
			c2.699,0.99,5.779,0.72,8.445-0.747c1.719-0.941,3.436-1.659,5.151-2.167c4.096-1.217,5.83-1.199,9.856,0.05
			c1.648,0.51,3.285,1.215,4.915,2.141c1.917,1.091,3.933,1.529,6.151,1.357c2.102-0.169,4.23-1.185,5.84-2.797
			c1.18-1.179,2.013-2.59,2.405-4.086C105.374,9.614,103.905,5.284,100.729,3.158z M69.246,15.541
			c-1.249,1.25-2.91,1.905-4.681,1.833c-3.457-0.14-6.214-3.022-6.154-6.428c0.035-1.695,0.704-3.286,1.889-4.471
			c1.235-1.237,2.88-1.888,4.624-1.836c3.528,0.103,6.312,3.018,6.207,6.493C71.083,12.811,70.41,14.378,69.246,15.541z
			 M101.13,11.053c-0.021,1.663-0.686,3.237-1.873,4.426c-1.199,1.196-2.775,1.854-4.431,1.849
			c-1.696-0.009-3.287-0.672-4.479-1.878c-1.194-1.198-1.844-2.796-1.833-4.489c0.007-1.669,0.665-3.235,1.846-4.419
			c1.185-1.185,2.76-1.844,4.433-1.858c1.682-0.012,3.271,0.653,4.484,1.864C100.488,7.766,101.147,9.366,101.13,11.053z"/>
		<path fill="#E00D1D" d="M62.025,8.174c-0.738,0.738-1.151,1.733-1.17,2.796c-0.041,2.086,1.665,3.853,3.807,3.94
			c2.105,0.084,3.966-1.702,4.033-3.88c0.063-2.127-1.66-3.914-3.84-3.98C63.789,7.02,62.782,7.417,62.025,8.174z"/>
	</g>
	<path fill="#E00D1D" d="M92.084,8.243c-0.726,0.725-1.126,1.687-1.129,2.705c-0.005,1.042,0.392,2.021,1.124,2.759
		c0.731,0.738,1.708,1.149,2.752,1.155c2.012,0.007,3.835-1.816,3.858-3.859c0.012-1.028-0.395-2.009-1.143-2.754
		C96.805,7.5,95.831,7.093,94.81,7.103C93.78,7.106,92.814,7.512,92.084,8.243z"/>
</g>
<g>
	<path fill="#88898A" d="M40.867,14.771c0.833,0.579,1.681,1.214,2.543,1.897c0.327,0.237,0.609,0.513,0.848,0.824
		c0.238,0.313,0.357,0.678,0.357,1.094c0,0.596-0.208,1.101-0.625,1.517c-0.417,0.417-0.922,0.626-1.517,0.626
		c-0.506,0-1.012-0.209-1.517-0.626c-1.221-0.892-2.47-1.754-3.749-2.588c-1.278-0.832-2.609-1.576-3.993-2.23
		c-1.383-0.654-2.819-1.176-4.306-1.563c-1.488-0.386-3.034-0.579-4.641-0.579h-8.881c-0.387,0.061-0.714,0.237-0.982,0.536
		c-0.268,0.297-0.402,0.669-0.402,1.114v5.936h-0.646h-1.495h-1.517H9.72v-6.426c0-0.744,0.141-1.45,0.424-2.12
		c0.282-0.669,0.662-1.25,1.138-1.74c0.476-0.491,1.042-0.878,1.696-1.161C13.631,9,14.346,8.858,15.119,8.858h23.65
		c0.446,0,0.84-0.156,1.183-0.469c0.341-0.313,0.513-0.707,0.513-1.183c0-0.445-0.171-0.832-0.513-1.16
		C39.61,5.72,39.215,5.556,38.77,5.556H9.72V4.931V3.414V1.896V1.272h28.871c0.832,0,1.614,0.156,2.342,0.469
		c0.729,0.312,1.368,0.736,1.919,1.271c0.55,0.536,0.981,1.16,1.294,1.875c0.312,0.714,0.468,1.488,0.468,2.32
		c0,0.834-0.156,1.606-0.468,2.321c-0.313,0.714-0.744,1.338-1.294,1.874c-0.552,0.535-1.191,0.96-1.919,1.271
		c-0.729,0.313-1.51,0.469-2.342,0.469h-0.179C39.215,13.648,40.033,14.19,40.867,14.771z"/>
	<path fill="#88898A" d="M146.448,1.896v1.518v1.518v0.625h-15.35v15.173h-0.626h-1.516h-1.517h-0.626V5.556h-15.35V4.864v-1.45
		V1.896V1.272h34.983V1.896L146.448,1.896z"/>
	<path fill="#88898A" d="M157.393,12.673c-0.714-0.312-1.338-0.736-1.874-1.271c-0.536-0.536-0.959-1.16-1.272-1.874
		c-0.313-0.714-0.468-1.487-0.468-2.321c0-0.832,0.155-1.606,0.468-2.32c0.313-0.714,0.736-1.338,1.272-1.875
		c0.536-0.535,1.16-0.958,1.874-1.271c0.715-0.313,1.488-0.469,2.321-0.469h23.49v0.625v1.518v1.517v0.625h-23.58
		c-0.446,0-0.842,0.156-1.184,0.468c-0.34,0.313-0.512,0.708-0.512,1.183c0,0.447,0.172,0.834,0.512,1.161
		c0.342,0.327,0.737,0.491,1.184,0.491h24.675c0.834,0,1.615,0.156,2.344,0.468c0.729,0.313,1.361,0.737,1.897,1.272
		c0.536,0.536,0.959,1.168,1.271,1.896c0.313,0.729,0.47,1.511,0.47,2.344s-0.157,1.605-0.47,2.319
		c-0.312,0.714-0.734,1.34-1.271,1.875s-1.168,0.952-1.897,1.25c-0.729,0.298-1.51,0.446-2.344,0.446h-30.768
		c-0.596,0-1.102-0.209-1.518-0.626c-0.416-0.416-0.625-0.921-0.625-1.517s0.209-1.1,0.625-1.518
		c0.416-0.416,0.922-0.625,1.518-0.625h30.947c0.448,0,0.833-0.155,1.159-0.469c0.327-0.312,0.493-0.69,0.493-1.138
		c0-0.476-0.164-0.877-0.493-1.204c-0.326-0.327-0.711-0.491-1.159-0.491h-24.765C158.881,13.143,158.107,12.986,157.393,12.673z"/>
</g>
</svg>
